<svg width="159" height="32" viewBox="0 0 159 32" fill="none" xmlns="http://www.w3.org/2000/svg">
<circle cx="16" cy="16" r="16" fill="#D36A80"/>
<path d="M12.3118 21H10.343L13.9276 10.8182H16.2045L19.794 21H17.8253L15.1058 12.9062H15.0263L12.3118 21ZM12.3764 17.0078H17.7457V18.4893H12.3764V17.0078Z" fill="white"/>
<path d="M41.6506 21H40.358L44.0966 10.8182H45.3693L49.108 21H47.8153L44.7727 12.429H44.6932L41.6506 21ZM42.1278 17.0227H47.3381V18.1165H42.1278V17.0227ZM51.7081 10.8182V21H50.5348V10.8182H51.7081ZM53.8571 23.8636V13.3636H54.9906V14.5767H55.1298C55.216 14.4441 55.3353 14.2751 55.4877 14.0696C55.6435 13.8608 55.8656 13.6752 56.1539 13.5128C56.4456 13.3471 56.84 13.2642 57.3372 13.2642C57.9802 13.2642 58.5469 13.425 59.0375 13.7464C59.528 14.0679 59.9108 14.5237 60.1859 15.1136C60.461 15.7036 60.5985 16.3996 60.5985 17.2017C60.5985 18.0104 60.461 18.7114 60.1859 19.3047C59.9108 19.8946 59.5297 20.352 59.0424 20.6768C58.5552 20.9983 57.9934 21.1591 57.3571 21.1591C56.8665 21.1591 56.4738 21.0779 56.1788 20.9155C55.8838 20.7498 55.6568 20.5625 55.4977 20.3537C55.3386 20.1416 55.216 19.9659 55.1298 19.8267H55.0304V23.8636H53.8571ZM55.0105 17.1818C55.0105 17.7585 55.095 18.2673 55.264 18.7081C55.4331 19.1456 55.68 19.4886 56.0048 19.7372C56.3296 19.9825 56.7273 20.1051 57.198 20.1051C57.6885 20.1051 58.0978 19.9759 58.426 19.7173C58.7574 19.4555 59.006 19.1042 59.1717 18.6634C59.3407 18.2192 59.4252 17.7254 59.4252 17.1818C59.4252 16.6449 59.3424 16.161 59.1767 15.7301C59.0143 15.2959 58.7673 14.9529 58.4359 14.701C58.1078 14.4458 57.6951 14.3182 57.198 14.3182C56.7207 14.3182 56.3197 14.4392 55.9949 14.6811C55.67 14.9197 55.4248 15.2545 55.2591 15.6854C55.0933 16.1129 55.0105 16.6117 55.0105 17.1818ZM63.5616 16.4062V21H62.3883V10.8182H63.5616V14.5568H63.661C63.84 14.1624 64.1085 13.8492 64.4664 13.6172C64.8277 13.3819 65.3083 13.2642 65.9082 13.2642C66.4286 13.2642 66.8843 13.3686 67.2754 13.5774C67.6665 13.7829 67.9698 14.0994 68.1852 14.527C68.4039 14.9512 68.5133 15.4915 68.5133 16.1477V21H67.34V16.2273C67.34 15.6207 67.1826 15.1518 66.8677 14.8203C66.5562 14.4856 66.1236 14.3182 65.5701 14.3182C65.1857 14.3182 64.841 14.3994 64.536 14.5618C64.2344 14.7242 63.9958 14.9612 63.8201 15.2727C63.6478 15.5843 63.5616 15.9621 63.5616 16.4062ZM72.907 21.179C72.4231 21.179 71.9839 21.0878 71.5895 20.9055C71.1951 20.7199 70.8819 20.4531 70.6499 20.1051C70.4179 19.7538 70.3018 19.3295 70.3018 18.8324C70.3018 18.3949 70.388 18.0402 70.5604 17.7685C70.7327 17.4934 70.9631 17.2779 71.2514 17.1222C71.5398 16.9664 71.858 16.8504 72.206 16.7741C72.5573 16.6946 72.9103 16.6316 73.2649 16.5852C73.7289 16.5256 74.1051 16.4808 74.3935 16.451C74.6851 16.4179 74.8973 16.3632 75.0298 16.2869C75.1657 16.2107 75.2337 16.0781 75.2337 15.8892V15.8494C75.2337 15.3589 75.0994 14.9777 74.831 14.706C74.5658 14.4342 74.1631 14.2983 73.6229 14.2983C73.0627 14.2983 72.6236 14.4209 72.3054 14.6662C71.9872 14.9115 71.7635 15.1733 71.6342 15.4517L70.5206 15.054C70.7195 14.59 70.9846 14.2287 71.3161 13.9702C71.6508 13.7083 72.0154 13.526 72.4098 13.4233C72.8075 13.3172 73.1986 13.2642 73.5831 13.2642C73.8284 13.2642 74.1101 13.294 74.4283 13.3537C74.7498 13.41 75.0597 13.5277 75.358 13.7067C75.6596 13.8857 75.9098 14.1558 76.1087 14.517C76.3075 14.8783 76.407 15.3622 76.407 15.9688V21H75.2337V19.9659H75.174C75.0945 20.1316 74.9619 20.3089 74.7763 20.4979C74.5907 20.6868 74.3438 20.8475 74.0355 20.9801C73.7273 21.1127 73.3511 21.179 72.907 21.179ZM73.0859 20.125C73.55 20.125 73.9411 20.0339 74.2592 19.8516C74.5807 19.6693 74.8227 19.4339 74.9851 19.1456C75.1508 18.8572 75.2337 18.554 75.2337 18.2358V17.1619C75.1839 17.2216 75.0746 17.2763 74.9055 17.326C74.7398 17.3724 74.5476 17.4138 74.3288 17.4503C74.1134 17.4834 73.9029 17.5133 73.6974 17.5398C73.4953 17.563 73.3312 17.5829 73.2053 17.5994C72.9003 17.6392 72.6153 17.7038 72.3501 17.7933C72.0883 17.8795 71.8762 18.0104 71.7138 18.1861C71.5547 18.3584 71.4751 18.5937 71.4751 18.892C71.4751 19.2997 71.6259 19.608 71.9276 19.8168C72.2325 20.0223 72.6186 20.125 73.0859 20.125ZM79.7218 10.8182V21H78.5485V10.8182H79.7218ZM81.8707 21V13.3636H83.044V21H81.8707ZM82.4673 12.0909C82.2386 12.0909 82.0414 12.013 81.8757 11.8572C81.7133 11.7015 81.6321 11.5142 81.6321 11.2955C81.6321 11.0767 81.7133 10.8894 81.8757 10.7337C82.0414 10.5779 82.2386 10.5 82.4673 10.5C82.696 10.5 82.8916 10.5779 83.054 10.7337C83.2197 10.8894 83.3026 11.0767 83.3026 11.2955C83.3026 11.5142 83.2197 11.7015 83.054 11.8572C82.8916 12.013 82.696 12.0909 82.4673 12.0909ZM86.3663 16.4062V21H85.193V13.3636H86.3265V14.5568H86.426C86.6049 14.169 86.8767 13.8575 87.2413 13.6222C87.6059 13.3835 88.0765 13.2642 88.6532 13.2642C89.1703 13.2642 89.6227 13.3703 90.0105 13.5824C90.3983 13.7912 90.6999 14.1094 90.9153 14.5369C91.1307 14.9612 91.2385 15.4981 91.2385 16.1477V21H90.0652V16.2273C90.0652 15.6274 89.9094 15.16 89.5978 14.8253C89.2863 14.4872 88.8587 14.3182 88.3152 14.3182C87.9406 14.3182 87.6059 14.3994 87.3109 14.5618C87.0192 14.7242 86.7889 14.9612 86.6199 15.2727C86.4508 15.5843 86.3663 15.9621 86.3663 16.4062ZM94.2575 13.3636L96.087 16.4858L97.9165 13.3636H99.2688L96.8029 17.1818L99.2688 21H97.9165L96.087 18.0369L94.2575 21H92.9052L95.3313 17.1818L92.9052 13.3636H94.2575ZM104.881 21V13.3636H106.054V21H104.881ZM105.477 12.0909C105.248 12.0909 105.051 12.013 104.885 11.8572C104.723 11.7015 104.642 11.5142 104.642 11.2955C104.642 11.0767 104.723 10.8894 104.885 10.7337C105.051 10.5779 105.248 10.5 105.477 10.5C105.706 10.5 105.901 10.5779 106.064 10.7337C106.229 10.8894 106.312 11.0767 106.312 11.2955C106.312 11.5142 106.229 11.7015 106.064 11.8572C105.901 12.013 105.706 12.0909 105.477 12.0909ZM109.376 16.4062V21H108.203V13.3636H109.336V14.5568H109.436C109.615 14.169 109.886 13.8575 110.251 13.6222C110.616 13.3835 111.086 13.2642 111.663 13.2642C112.18 13.2642 112.632 13.3703 113.02 13.5824C113.408 13.7912 113.71 14.1094 113.925 14.5369C114.141 14.9612 114.248 15.4981 114.248 16.1477V21H113.075V16.2273C113.075 15.6274 112.919 15.16 112.608 14.8253C112.296 14.4872 111.868 14.3182 111.325 14.3182C110.95 14.3182 110.616 14.3994 110.321 14.5618C110.029 14.7242 109.799 14.9612 109.63 15.2727C109.461 15.5843 109.376 15.9621 109.376 16.4062ZM119.494 21.1591C118.779 21.1591 118.162 20.9901 117.645 20.652C117.128 20.3139 116.73 19.8482 116.452 19.255C116.173 18.6617 116.034 17.9839 116.034 17.2216C116.034 16.446 116.177 15.7616 116.462 15.1683C116.75 14.5717 117.151 14.1061 117.665 13.7713C118.182 13.4332 118.785 13.2642 119.475 13.2642C120.012 13.2642 120.495 13.3636 120.926 13.5625C121.357 13.7614 121.71 14.0398 121.985 14.3977C122.26 14.7557 122.431 15.1733 122.497 15.6506H121.324C121.235 15.3026 121.036 14.9943 120.727 14.7259C120.423 14.4541 120.012 14.3182 119.494 14.3182C119.037 14.3182 118.636 14.4375 118.291 14.6761C117.95 14.9115 117.683 15.2446 117.491 15.6754C117.302 16.103 117.208 16.6051 117.208 17.1818C117.208 17.7718 117.3 18.2855 117.486 18.723C117.675 19.1605 117.94 19.5002 118.281 19.7422C118.626 19.9841 119.03 20.1051 119.494 20.1051C119.799 20.1051 120.076 20.0521 120.325 19.946C120.573 19.84 120.784 19.6875 120.956 19.4886C121.128 19.2898 121.251 19.0511 121.324 18.7727H122.497C122.431 19.2235 122.267 19.6295 122.005 19.9908C121.747 20.3487 121.404 20.6338 120.976 20.8459C120.552 21.0547 120.058 21.1591 119.494 21.1591ZM125.068 21.0795C124.822 21.0795 124.612 20.9917 124.436 20.8161C124.261 20.6404 124.173 20.4299 124.173 20.1847C124.173 19.9394 124.261 19.7289 124.436 19.5533C124.612 19.3776 124.822 19.2898 125.068 19.2898C125.313 19.2898 125.523 19.3776 125.699 19.5533C125.875 19.7289 125.963 19.9394 125.963 20.1847C125.963 20.3471 125.921 20.4962 125.838 20.6321C125.759 20.768 125.651 20.8774 125.515 20.9602C125.383 21.0398 125.233 21.0795 125.068 21.0795Z" fill="white"/>
<mask id="mask0_932_16" style="mask-type:alpha" maskUnits="userSpaceOnUse" x="135" y="4" width="24" height="24">
<rect x="135" y="4" width="24" height="24" fill="#D9D9D9"/>
</mask>
<g mask="url(#mask0_932_16)">
<path d="M147 19.05L141.35 13.375L142.4 12.325L147 16.925L151.6 12.325L152.65 13.375L147 19.05Z" fill="white"/>
</g>
</svg>
